<?xml version="1.0" encoding="UTF-8"?>
<svg width="45px" height="45px" viewBox="0 0 45 45" version="1.1" xmlns="http://www.w3.org/2000/svg" xmlns:xlink="http://www.w3.org/1999/xlink">
    <!-- Generator: Sketch 50.2 (55047) - http://www.bohemiancoding.com/sketch -->
    <title>Group</title>
    <desc>Created with Sketch.</desc>
    <defs></defs>
    <g id="Page-1" stroke="none" stroke-width="1" fill="none" fill-rule="evenodd">
        <g id="Practice-Areas" transform="translate(-810.000000, -796.000000)" fill="#FFFFFF" fill-rule="nonzero">
            <g id="areas" transform="translate(80.000000, 164.000000)">
                <g id="Group-3" transform="translate(670.000000, 632.000000)">
                    <g id="Group" transform="translate(60.000000, 0.000000)">
                        <path d="M45,0 L40.781188,0 L40.781188,37.9693081 C40.781188,39.522589 39.5215968,40.7816841 37.9683159,40.7816841 C36.7642876,40.7816841 35.7373661,40.0251356 35.3360233,38.9615028 C36.5618799,38.1796534 36.562376,36.5628721 36.562376,36.5628721 C36.562376,35.7864797 35.9323323,35.156436 35.1559399,35.156436 L30.9371279,35.156436 C30.1607355,35.156436 29.5306919,35.7864797 29.5306919,36.5628721 C29.5306919,36.5628721 29.5306919,38.4113309 31.0298981,39.1113242 C31.5756052,42.4510517 34.4738061,45.0004961 37.9678198,45.0004961 C41.85127,45.0004961 44.9995039,41.8522622 44.9995039,37.9693081 L44.9995039,0 L45,0 Z M35.156436,36.5628721 C35.156436,36.5628721 35.156436,37.9693081 33.75,37.9693081 C33.75,38.4624289 33.8348326,38.9352097 33.9901111,39.375248 C34.5695529,41.0138577 36.1322596,42.1881201 37.968812,42.1881201 C40.2979892,42.1881201 42.187624,40.2984852 42.187624,37.9693081 L42.187624,1.40593994 L43.5940601,1.40593994 L43.5940601,37.968812 C43.5940601,41.0758698 41.0758698,43.593564 37.968812,43.593564 C35.3474335,43.593564 33.1452573,41.8011642 32.5211668,39.374752 C32.4060722,38.9252877 32.3445562,38.4544913 32.3445562,37.968812 C30.9381201,37.968812 30.9381201,36.562376 30.9381201,36.562376 L35.156436,36.562376 L35.156436,36.5628721 Z M35.874785,25.312376 C35.6951978,26.560557 35.4302818,27.941692 35.0180249,28.7582683 C34.0982604,30.5814261 31.8162125,31.6872271 29.9508864,32.2607157 C28.089529,32.832716 24.4630573,33.4840918 22.9117608,31.9322992 C22.4498942,31.4704326 22.1601733,30.8289787 21.6670525,30.3353618 C21.1079508,29.7767562 20.4793954,29.531188 19.6871279,29.531188 C18.8948604,29.531188 18.2668012,29.7767562 17.7076994,30.3353618 C17.2145786,30.8289787 16.9248578,31.4704326 16.4629911,31.9322992 C14.9111986,33.4840918 11.2847268,32.832716 9.42336949,32.2607157 C7.55853949,31.6877232 5.2759955,30.5814261 4.35672708,28.7582683 C3.94447017,27.941692 3.68005027,26.5600609 3.49996693,25.312376 L1.40593994,25.312376 C0.629547559,25.312376 0,24.6828284 0,23.906436 L0,19.687624 C0,18.9112316 0.629547559,18.281188 1.40593994,18.281188 L2.81237598,18.281188 C2.81237598,17.1476055 3.79018389,16.4997023 4.71639767,16.1043127 C5.65947877,15.7009856 6.74444371,15.433093 7.74656039,15.2197711 C10.5455417,14.6224699 13.5439542,14.3074481 16.3994907,14.154154 C17.4938815,14.0951184 18.5912488,14.062376 19.6871279,14.062376 C20.7835031,14.062376 21.8808705,14.0946223 22.9752613,14.154154 C25.8312938,14.3079442 28.8297063,14.6224699 31.6281916,15.2197711 C32.6303082,15.4335891 33.7152732,15.7014817 34.6583543,16.1043127 C35.584072,16.4997023 36.562376,17.1476055 36.562376,18.281188 L37.9683159,18.281188 C38.7447083,18.281188 39.374752,18.9112316 39.374752,19.687624 L39.374752,23.906436 C39.374752,24.6828284 38.7447083,25.312376 37.9683159,25.312376 L35.874785,25.312376 Z M19.6871279,28.125248 C22.5,28.125248 23.3994245,30.4306125 23.906436,30.937624 C25.312376,32.3440601 32.3440601,30.937624 33.7624024,28.125248 C34.6543855,26.3576531 35.156436,18.281188 35.156436,18.281188 C35.156436,16.874752 26.718812,15.468812 19.6871279,15.468812 C12.6559399,15.468812 4.21831591,16.874752 4.21831591,18.281188 C4.21831591,18.281188 4.72036645,26.3576531 5.61185342,28.125248 C7.03069189,30.937624 14.062376,32.3440601 15.4683159,30.937624 C15.9758235,30.4306125 16.874752,28.125248 19.6871279,28.125248 Z M36.4681175,19.687624 C36.368898,20.9898796 36.2443776,22.2946157 36.0925718,23.5859571 L36.0553645,23.906436 L37.9683159,23.906436 L37.9683159,19.687624 L36.4681175,19.687624 Z M2.90663448,19.687624 L1.40593994,19.687624 L1.40593994,23.906436 L3.31938749,23.906436 L3.28168409,23.5859571 C3.13037439,22.2946157 3.00585395,20.9893835 2.90663448,19.687624 Z" id="Shape"></path>
                    </g>
                </g>
            </g>
        </g>
    </g>
</svg>