<?xml version="1.0" encoding="UTF-8"?>
<svg width="47px" height="46px" viewBox="0 0 47 46" version="1.1" xmlns="http://www.w3.org/2000/svg" xmlns:xlink="http://www.w3.org/1999/xlink">
    <!-- Generator: Sketch 50.2 (55047) - http://www.bohemiancoding.com/sketch -->
    <title>Group 11</title>
    <desc>Created with Sketch.</desc>
    <defs></defs>
    <g id="Page-1" stroke="none" stroke-width="1" fill="none" fill-rule="evenodd">
        <g id="Practice-Areas" transform="translate(-309.000000, -659.000000)" fill="#FFFFFF" fill-rule="nonzero" stroke="#FFFFFF" stroke-width="0.2">
            <g id="areas" transform="translate(80.000000, 164.000000)">
                <g id="Group-4" transform="translate(170.000000, 496.000000)">
                    <g id="Group-11" transform="translate(60.000000, 0.000000)">
                        <path d="M44.0386925,0.164910257 L39.3325231,4.87107967 C38.1607669,4.05011831 36.586413,4.11036719 35.6038495,5.09349375 L34.1167721,6.58057121 L33.588609,6.05240815 C32.2113309,4.6740039 29.9702979,4.67344082 28.594709,6.04846663 L6.25701496,28.3867237 L5.07230804,27.2020168 C4.85214625,26.981855 4.49628371,26.981855 4.27612192,27.2020168 C4.05596013,27.4221786 4.05596013,27.7780411 4.27612192,27.9982029 L7.41750971,31.1395907 L2.09195931,36.464578 L0.961307457,35.3339262 C0.741145667,35.1137644 0.385283132,35.1137644 0.165121342,35.3339262 C-0.0550404475,35.554088 -0.0550404475,35.9099505 0.165121342,36.1301123 L8.62079806,44.585789 C8.73059742,44.6955884 8.87474427,44.7507696 9.01889112,44.7507696 C9.16303797,44.7507696 9.30718482,44.6955884 9.41698418,44.585789 C9.63714597,44.3656272 9.63714597,44.0097647 9.41698418,43.7896029 L8.36854108,42.7411598 L13.6940915,37.4161725 L16.9103681,40.6324491 C17.0201674,40.7422484 17.1643143,40.7974296 17.3084611,40.7974296 C17.452608,40.7974296 17.5967548,40.7422484 17.7065542,40.6324491 C17.926716,40.4122873 17.926716,40.0564247 17.7065542,39.8362629 L16.4188048,38.5485136 L38.7570619,16.2108195 C40.1326508,14.8346676 40.1309615,12.5947607 38.7531204,11.2169195 L38.4192177,10.8830168 L39.9062952,9.39593937 C40.8888586,8.41337588 40.9496706,6.83902201 40.1287092,5.66726578 L44.8348787,0.961096372 C45.0550404,0.740934582 45.0550404,0.385072047 44.8348787,0.164910257 C44.6147169,-0.0552515325 44.2588543,-0.0546884588 44.0386925,0.164910257 Z M7.57235496,41.9449737 L2.8887085,37.2613272 L8.2142589,31.9363399 L12.8979054,36.6199864 L7.57235496,41.9449737 Z M7.05320107,29.1834729 L10.2238687,26.0128053 L13.3528689,29.1418055 C13.4626682,29.2516048 13.6068151,29.306786 13.7509619,29.306786 C13.8951088,29.306786 14.0392556,29.2516048 14.149055,29.1418055 C14.3692168,28.9216437 14.3692168,28.5657811 14.149055,28.3456194 L11.0200548,25.2166192 L14.2571651,21.9795089 L17.3861653,25.108509 C17.4959646,25.2183084 17.6401115,25.2734896 17.7842583,25.2734896 C17.9284052,25.2734896 18.072552,25.2183084 18.1823514,25.108509 C18.4025132,24.8883473 18.4025132,24.5324847 18.1823514,24.3123229 L15.0533512,21.1833228 L18.2898985,17.9462125 L21.4188986,21.0752126 C21.528698,21.185012 21.6728448,21.2401932 21.8169917,21.2401932 C21.9611385,21.2401932 22.1052854,21.185012 22.2150847,21.0752126 C22.4352465,20.8550508 22.4352465,20.4991883 22.2150847,20.2790265 L19.0860846,17.1500263 L22.3288256,13.9067222 C22.3383979,13.9179837 22.3417763,13.9320605 22.3524747,13.9427589 L30.8920494,22.4823336 L15.6214925,37.7523274 L7.05320107,29.1834729 Z M37.9608758,15.4146334 L31.6893617,21.6861475 L23.1492239,13.1465728 C23.1385255,13.1358744 23.1244487,13.132496 23.1131872,13.1229237 L26.3559282,9.88018269 L29.4849284,13.0091829 C29.5947278,13.1189822 29.7388746,13.1741634 29.8830215,13.1741634 C30.0271683,13.1741634 30.1713152,13.1189822 30.2811145,13.0091829 C30.5012763,12.7890211 30.5012763,12.4331585 30.2811145,12.2129967 L27.1521143,9.08399658 L29.3908951,6.84521582 C30.3278496,5.90769822 31.8537792,5.90995052 32.7924229,6.84915733 L37.9563712,12.0131056 C38.895578,12.9517493 38.8972672,14.4776789 37.9608758,15.4146334 Z M39.110109,8.60031633 L37.6230316,10.0873938 L34.9135213,7.37788347 L36.4005987,5.89080601 C37.0723456,5.22018532 38.2260834,5.28156034 38.972156,6.02875905 C39.3404062,6.39700921 39.5543741,6.87224335 39.5740817,7.36605893 C39.5937893,7.84241922 39.4288087,8.28105358 39.110109,8.60031633 Z" id="Shape"></path>
                    </g>
                </g>
            </g>
        </g>
    </g>
</svg>