<?xml version="1.0" encoding="UTF-8"?>
<svg width="42px" height="42px" viewBox="0 0 42 42" version="1.1" xmlns="http://www.w3.org/2000/svg" xmlns:xlink="http://www.w3.org/1999/xlink">
    <!-- Generator: Sketch 50.2 (55047) - http://www.bohemiancoding.com/sketch -->
    <title>Group 13</title>
    <desc>Created with Sketch.</desc>
    <defs></defs>
    <g id="Page-1" stroke="none" stroke-width="1" fill="none" fill-rule="evenodd">
        <g id="Practice-Areas" transform="translate(-810.000000, -1400.000000)" fill="#FFFFFF" fill-rule="nonzero">
            <g id="areas" transform="translate(80.000000, 164.000000)">
                <g id="Group-8" transform="translate(670.000000, 1236.000000)">
                    <g id="Group-13" transform="translate(60.000000, 0.000000)">
                        <path d="M34.9533333,7 C31.0958667,3.14206667 26.4366667,1.21333333 20.9766667,1.21333333 C19.4520667,1.21333333 17.9125333,1.38413333 16.3566667,1.72666667 L16.3566667,1.75 C16.3566667,3.05666667 15.6958667,4.34746667 14.3733333,5.62333333 C13.5025333,6.51 12.9892,7.14 12.8333333,7.51333333 C13.0358667,7.7154 13.4246,7.9254 14,8.14333333 C15.2912667,8.67253333 15.9366667,9.42666667 15.9366667,10.4066667 C15.9366667,11.5579333 15.4933333,12.4212667 14.6062,12.9966667 C14.0928667,13.2608 13.2762,13.5333333 12.1562,13.8133333 C11.13,14.0620667 10.4454,14.2954 10.1033333,14.5133333 C9.60586667,14.8712667 9.3562,15.4079333 9.3562,16.1233333 L9.84666667,18.2933333 C10.22,19.8958667 10.4062,20.9066667 10.4062,21.3266667 C10.4062,21.5754 10.7254,21.7392 11.3633333,21.8166667 L13.7666667,21.8166667 C14.9025333,21.8166667 15.7812667,22.2987333 16.4033333,23.2633333 C16.7920667,23.8854 17.5933333,24.2046 18.8062,24.22 C20.0816,24.2508 21.1708,24.9587333 22.0728667,26.3433333 C22.5241333,27.0587333 22.6482667,27.7125333 22.4466667,28.3033333 C22.2133333,28.91 21.6220667,29.3454 20.6728667,29.61 C20.1908,29.7187333 19.6541333,30.24 19.0633333,31.1733333 C18.2228667,32.5266667 17.3366667,34.6266667 16.4033333,37.4733333 C16.31,37.7687333 16.1228667,37.9166667 15.8433333,37.9166667 C14.2254,37.9166667 13.2920667,36.7966667 13.0433333,34.5566667 C12.7633333,32.55 12.5458667,31.4066667 12.39,31.1266667 C12.11,30.8312667 11.1150667,30.3958667 9.4038,29.82 C7.67713333,29.2133333 6.8138,28.28 6.8138,27.02 C6.8138,26.7558667 7.04713333,26.0558667 7.5138,24.92 C7.91793333,23.9712667 8.12046667,23.45 8.12046667,23.3566667 C8.12046667,21.5212667 7.623,20.4479333 6.62713333,20.1366667 C5.8492,19.9812667 5.3592,19.8412667 5.15713333,19.7166667 C4.50426667,19.39 4.17713333,18.83 4.17713333,18.0366667 C4.17713333,17.71 4.3246,17.1579333 4.62046667,16.38 L4.90046667,15.6566667 L2.35713333,14.21 C1.59506667,16.3412667 1.21426667,18.6125333 1.21426667,21.0233333 C1.2138,26.4833333 3.14206667,31.1420667 7,35 C10.8892,38.8579333 15.5479333,40.7866667 20.9766667,40.7866667 C26.4366667,40.7866667 31.1033333,38.8579333 34.9766667,35 C38.6633333,31.3287333 40.5920667,26.8954 40.7633333,21.7 C39.9546,21.7 39.1220667,21.0233333 38.2662,19.67 C37.9241333,19.0946 37.6208,18.6666667 37.3562,18.3866667 L37.0533333,18.1766667 C36.9287333,18.1920667 36.7187333,18.3012667 36.4228667,18.5033333 C36.1895333,18.7212667 36.0728667,18.8920667 36.0728667,19.0166667 C36.0728667,19.4054 36.3146,19.7474667 36.7966667,20.0433333 C37.7608,20.5566667 38.2433333,21.2333333 38.2433333,22.0733333 C38.2433333,22.26 38.1112667,22.6020667 37.8466667,23.1 C37.3954,23.9087333 36.4854,25.4020667 35.1162,27.58 C35.0695333,27.6266667 34.9916,27.6966667 34.8828667,27.79 C33.8408,28.3187333 33.0708,28.4046 32.5728667,28.0466667 C32.1220667,27.7508 31.9587333,27.1287333 32.0828667,26.18 L32.1528667,25.9233333 C32.3236667,25.2392 32.4095333,24.8346 32.4095333,24.71 C32.4095333,23.2320667 31.5308,22.2754 29.7728667,21.84 C28.4041333,21.4979333 27.6728667,21.2954 27.58,21.2333333 C26.7087333,20.8754 26.2728667,20.2920667 26.2728667,19.4833333 C26.2728667,17.3674667 27.5328667,16.1233333 30.0533333,15.75 L30.7066667,15.6333333 C30.94,15.3379333 31.2125333,15.0733333 31.5233333,14.84 L32.0371333,14.3966667 C31.773,14.4274667 31.3912667,14.5133333 30.8938,14.6533333 C30.2404667,14.84 29.6412667,14.9333333 29.0971333,14.9333333 C28.6458667,14.9333333 28.3346,14.8946 28.1638,14.8166667 L28.1166667,14.7466667 C27.8366667,14.5754 27.6971333,14.1941333 27.6971333,13.6033333 C27.6971333,12.67 28.1871333,12.0866667 29.1666667,11.8533333 L30.9166667,11.48 C31.3679333,11.34 31.8112667,11.0754 32.2471333,10.6866667 C32.9779333,10.0487333 33.4217333,9.68333333 33.5771333,9.59 C33.9192,9.35666667 34.5338,9.17 35.4204667,9.03 C35.7158667,8.95206667 35.8717333,8.7108 35.8871333,8.30666667 L35.9104667,8.05 L34.9533333,7 Z M36.9833333,7.44333333 C40.25,11.1920667 41.9225333,15.6487333 42,20.8133333 L42,21.0233333 C42,26.8254 39.9392,31.7725333 35.8166667,35.8633333 C31.7254,39.9546 26.7792,42 20.9766667,42 C15.19,42 10.2512667,39.9546 6.16,35.8633333 C2.05333333,31.7879333 0,26.8412667 0,21.0233333 C0,18.1612667 0.49,15.5166667 1.47,13.09 C2.49666667,10.57 4.06,8.26 6.16,6.16 C8.88206667,3.42253333 11.9933333,1.5946 15.4933333,0.676666667 C17.2666667,0.2254 19.0946,0 20.9766667,0 C26.7792,0 31.7254,2.05333333 35.8166667,6.16 C36.19,6.53333333 36.5792,6.96126667 36.9833333,7.44333333 Z M28.91,13.72 L29.0966667,13.72 C29.5008,13.72 29.9987333,13.6341333 30.5895333,13.4633333 C31.3520667,13.2766667 31.92,13.1833333 32.2928667,13.1833333 C32.7903333,13.1833333 33.1328667,13.3079333 33.3195333,13.5566667 L33.3662,13.6266667 C33.4908,13.8133333 33.5528667,14.07 33.5528667,14.3966667 C33.5528667,14.5520667 33.4749333,14.7154 33.3195333,14.8866667 C33.1795333,15.0266667 32.8374667,15.3225333 32.2928667,15.7733333 C31.9816,16.0533333 31.7328667,16.2946 31.5462,16.4966667 C31.4682667,16.6520667 31.3436667,16.7454 31.1724,16.7766667 L30.2390667,16.94 C28.4036667,17.22 27.4862,18.0679333 27.4862,19.4833333 C27.4862,19.7633333 27.6724,19.9733333 28.0462,20.1133333 L28.0928667,20.1366667 L30.0528667,20.65 C31.3749333,20.9766667 32.3390667,21.5674667 32.9462,22.4233333 C33.3974667,23.0766667 33.6224,23.8392 33.6224,24.71 C33.6224,24.8812667 33.5295333,25.3633333 33.3424,26.1566667 L33.2724,26.4366667 C33.2257333,26.7633333 33.2257333,26.9812667 33.2724,27.09 C33.3349333,27.09 33.4128667,27.0820667 33.5057333,27.0666667 C33.677,27.02 33.9028667,26.9187333 34.1824,26.7633333 C35.9557333,23.9633333 36.897,22.3841333 37.0057333,22.0266667 C37.0057333,21.6846 36.7490667,21.3654 36.2362,21.07 C35.3182667,20.5879333 34.8595333,19.9033333 34.8595333,19.0166667 C34.8595333,18.4879333 35.1395333,17.9974667 35.6995333,17.5466667 C36.2287333,17.1579333 36.68,16.9633333 37.0528667,16.9633333 C37.7374667,16.9633333 38.4916,17.6554 39.3162,19.04 C39.8608,19.9112667 40.3195333,20.3933333 40.6928667,20.4866667 L40.7628667,20.4633333 C40.6695333,16.2320667 39.3782667,12.4912667 36.8890667,9.24 C36.6557333,9.72253333 36.2590667,10.0487333 35.6990667,10.22 L35.6295333,10.22 C34.9295333,10.3287333 34.4549333,10.4612667 34.2057333,10.6166667 L33.0390667,11.5733333 C32.4478,12.1179333 31.857,12.4754 31.2657333,12.6466667 L31.1962,12.67 C30.4182667,12.7946 29.8349333,12.9187333 29.4462,13.0433333 C29.0882667,13.1212667 28.9095333,13.3079333 28.9095333,13.6033333 L28.9095333,13.72 L28.91,13.72 Z M21.0471333,26.9966667 C20.3938,25.9854 19.6392,25.4566667 18.7833333,25.41 C17.1192,25.41 15.9754,24.9125333 15.3533333,23.9166667 C14.9954,23.31 14.4666667,23.0066667 13.7666667,23.0066667 L11.27,23.0066667 C9.8854,22.8666667 9.19333333,22.3066667 9.19333333,21.3266667 C9.19333333,20.9687333 9.02253333,20.0433333 8.68,18.55 L8.12,16.1933333 C8.12,15.0266667 8.55586667,14.1246 9.42666667,13.4866667 C9.86253333,13.2066667 10.6866667,12.9187333 11.9,12.6233333 C12.9266667,12.39 13.6192,12.1646 13.9766667,11.9466667 C14.4741333,11.6354 14.7233333,11.1220667 14.7233333,10.4066667 C14.7233333,9.98666667 14.3266667,9.61333333 13.5333333,9.28666667 C12.2579333,8.77333333 11.62,8.19793333 11.62,7.56 C11.62,6.9846 12.2574667,6.05873333 13.5333333,4.78333333 C14.4512667,3.8808 14.9804667,2.97126667 15.12,2.05333333 C12.0558667,3.00206667 9.34873333,4.6508 7,7 C5.14873333,8.89746667 3.74873333,10.92 2.8,13.0666667 L5.95,14.8866667 C6.24586667,15.0420667 6.3392,15.2912667 6.23046667,15.6333333 L5.7638,16.8 C5.51506667,17.4379333 5.39,17.85 5.39,18.0366667 C5.39,18.3479333 5.49126667,18.55 5.69333333,18.6433333 C5.8646,18.7212667 6.26126667,18.8225333 6.88333333,18.9466667 L6.93046667,18.9466667 C8.53253333,19.4133333 9.33333333,20.8912667 9.33333333,23.38 C9.33333333,23.5820667 9.1,24.2508 8.63333333,25.3866667 C8.2754,26.2579333 8.0654,26.81 8.00333333,27.0433333 C8.00333333,27.7125333 8.60206667,28.2566667 9.8,28.6766667 C11.76,29.3458667 12.9346,29.8979333 13.3233333,30.3333333 C13.5879333,30.6133333 13.8912667,31.9666667 14.2333333,34.3933333 C14.4046,35.7 14.7933333,36.4466667 15.4,36.6333333 C17.0804667,31.5933333 18.7366667,28.8554 20.37,28.42 C20.93,28.2646 21.2408,28.0779333 21.3033333,27.86 C21.3812667,27.6887333 21.2958667,27.4008 21.0471333,26.9966667 Z" id="Shape"></path>
                    </g>
                </g>
            </g>
        </g>
    </g>
</svg>