<?xml version="1.0" encoding="UTF-8"?>
<svg width="41px" height="42px" viewBox="0 0 41 42" version="1.1" xmlns="http://www.w3.org/2000/svg" xmlns:xlink="http://www.w3.org/1999/xlink">
    <!-- Generator: Sketch 50.2 (55047) - http://www.bohemiancoding.com/sketch -->
    <title>Group</title>
    <desc>Created with Sketch.</desc>
    <defs></defs>
    <g id="Page-1" stroke="none" stroke-width="1" fill="none" fill-rule="evenodd">
        <g id="Contact" transform="translate(-310.000000, -898.000000)" fill="#FFFFFF">
            <g id="Group" transform="translate(310.000000, 898.000000)">
                <path d="M39.8065681,30.6425461 C41.2729116,31.7830347 41.3936798,33.8258431 40.0781385,35.1413852 L35.7158842,39.5036386 C31.1253542,44.0941686 17.7343089,39.5740841 9.80250024,31.6422754 C1.87004094,23.7098161 -2.65005341,10.3200819 1.94113706,5.72889141 L6.30339047,1.36663718 C7.61961941,0.0504090588 9.66336,0.173945882 10.8022304,1.63820753 L15.9261126,8.22605659 C17.0173088,9.62902294 16.8810839,11.7525808 15.6223562,13.0113085 L12.7174929,15.9161718 C12.0081401,16.6255238 11.8311044,17.9568604 12.3707195,18.8623705 C12.4061338,18.9347727 12.4856571,19.0855 12.6109776,19.3050925 C12.8245962,19.6794064 13.0874388,20.1038139 13.4011673,20.5688749 C14.3026833,21.9052507 15.4280675,23.2920849 16.7903795,24.6543969 C18.1526553,26.0166727 19.5411127,27.1430691 20.8802185,28.0462782 C21.3462702,28.3606244 21.7717418,28.6241258 22.1471229,28.8384015 C22.3673849,28.9641314 22.5186484,29.0439775 22.6436132,29.1075244 C23.4963614,29.6039446 24.8270178,29.4288696 25.5286039,28.7272827 L28.4334672,25.8224194 C29.6923727,24.5635139 31.817912,24.429146 33.2187191,25.5186631 L39.8065681,30.6425461 Z M38.795372,31.9426553 L32.2075229,26.8187722 C31.4629231,26.2396392 30.2701371,26.3150424 29.598114,26.9870662 L26.6932507,29.8919295 C25.463802,31.1213774 23.3148769,31.4041132 21.8672036,30.5588969 C21.7637848,30.5082696 21.5817576,30.4121844 21.3306084,30.2688227 C20.9203046,30.0346134 20.4600052,29.7495421 19.9592145,29.4117649 C18.5359144,28.4517676 17.0658872,27.2591974 15.6257327,25.8190429 C14.1856136,24.3789247 12.9940613,22.9105495 12.0357498,21.4899811 C11.6985392,20.9901111 11.4140773,20.5307949 11.1804782,20.121472 C11.0374682,19.8708827 10.9416522,19.6892747 10.9247073,19.64781 C10.0265274,18.1503041 10.3137086,15.9906633 11.5528469,14.7515249 L14.4577094,11.8466616 C15.1300174,11.1743545 15.2064105,9.98349141 14.6260034,9.23725271 L9.50212035,2.64940365 C8.97234059,1.96825753 8.08471671,1.91460459 7.46803729,2.531284 L3.10578306,6.89353824 C-0.619563412,10.6188847 3.59598153,23.1064639 10.9671471,30.4776286 C18.3376661,37.8481476 30.8265259,42.0637049 34.5512374,38.3389926 L38.9134916,33.9767384 C39.530204,33.3600268 39.4777888,32.4734241 38.795372,31.9426553 Z" id="Shape"></path>
            </g>
        </g>
    </g>
</svg>