<?xml version="1.0" encoding="UTF-8"?>
<svg width="43px" height="43px" viewBox="0 0 43 43" version="1.1" xmlns="http://www.w3.org/2000/svg" xmlns:xlink="http://www.w3.org/1999/xlink">
    <!-- Generator: Sketch 50.2 (55047) - http://www.bohemiancoding.com/sketch -->
    <title>Group 12</title>
    <desc>Created with Sketch.</desc>
    <defs></defs>
    <g id="Page-1" stroke="none" stroke-width="1" fill="none" fill-rule="evenodd">
        <g id="Practice-Areas" transform="translate(-309.000000, -979.000000)" fill="#FFFFFF" fill-rule="nonzero" stroke="#FFFFFF" stroke-width="0.4">
            <g id="areas" transform="translate(80.000000, 164.000000)">
                <g id="Group-5" transform="translate(170.000000, 816.000000)">
                    <g id="Group-12" transform="translate(60.000000, 0.000000)">
                        <path d="M9.41320007,40.2111111 L13.5322562,40.2111111 C13.561815,40.2111111 13.5872253,40.1991852 13.615747,40.1945185 C15.8575548,41.0257037 18.280346,41.4814815 20.8078897,41.4814815 C23.3354333,41.4814815 25.7582245,41.0257037 28.0005509,40.194 C28.028554,40.1986667 28.0544829,40.2105926 28.0840417,40.2105926 L32.2030978,40.2105926 C36.6146313,40.2105926 40.2031832,36.6224444 40.2031832,32.2114074 L40.2031832,28.0855556 C41.0717995,25.800963 41.5514831,23.3260741 41.5514831,20.7402222 C41.5514831,18.159037 41.0733552,15.6882963 40.2078504,13.4068148 L40.2078504,9.27992593 C40.2078504,4.86940741 36.6192985,1.28074074 32.207765,1.28074074 L28.0887089,1.28074074 C28.0643358,1.28074074 28.0435927,1.29111111 28.0202568,1.29474074 C25.772226,0.459407407 23.3426934,0 20.8078897,0 C18.2741231,0 15.8456276,0.45837037 13.5991526,1.2937037 C13.5778909,1.29111111 13.5587036,1.28125926 13.5364048,1.28125926 L9.41734869,1.28125926 C5.00581524,1.28125926 1.41726329,4.86940741 1.41726329,9.28044444 L1.41726329,13.3845185 C0.546054151,15.6727407 0.0648148148,18.1512593 0.0648148148,20.7412593 C0.0648148148,23.3271111 0.544498421,25.8014815 1.41311468,28.0865926 L1.41311468,32.2124444 C1.41311468,36.622963 5.00166663,40.2111111 9.41320007,40.2111111 Z M11.5466253,3.35533333 L15.1626618,9.82385185 C12.9426343,10.976 11.1167251,12.783037 9.94370421,14.9898519 L3.47497632,11.3742222 C5.31955425,7.97585185 8.13542666,5.17948148 11.5466253,3.35533333 Z M20.8078897,9.48318519 C27.016292,9.48318519 32.0672307,14.5335556 32.0672307,20.7412593 C32.0672307,26.948963 27.016292,31.9993333 20.8078897,31.9993333 C14.5994874,31.9993333 9.54854863,26.948963 9.54854863,20.7407407 C9.54854863,14.5325185 14.5994874,9.48318519 20.8078897,9.48318519 Z M38.140803,11.3742222 L31.6720751,14.9898519 C30.4985357,12.783037 28.6726265,10.976 26.4531175,9.82385185 L30.069154,3.35533333 C33.4803527,5.17948148 36.2962251,7.97585185 38.140803,11.3742222 Z M30.1510891,38.0846667 L26.5350526,31.6166667 C28.7613031,30.4396296 30.5830637,28.5999259 31.7389715,26.360963 L38.2076994,29.9765926 C36.3797159,33.4065926 33.5690293,36.2361481 30.1510891,38.0846667 Z M15.0807267,31.6166667 L11.4646902,38.0846667 C8.04675002,36.2361481 5.23606337,33.4065926 3.40756133,29.9765926 L9.87628922,26.360963 C11.0321971,28.5994074 12.8544762,30.4396296 15.0807267,31.6166667 Z M9.41320007,39.1740741 C5.57365692,39.1740741 2.45026842,36.051037 2.45026842,32.2119259 L2.45026842,30.381037 C4.43382495,34.1418519 7.53854468,37.2208148 11.3179329,39.1740741 L9.41320007,39.1740741 Z M12.3908685,38.5523704 L16.0177951,32.0646667 C17.4905534,32.69 19.1095504,33.0358519 20.8073711,33.0358519 C22.5057103,33.0358519 24.1241888,32.6894815 25.5969471,32.0646667 L29.2238737,38.5523704 C26.6704012,39.7641481 23.8177098,40.4444444 20.8078897,40.4444444 C17.7980695,40.4444444 14.9453781,39.7641481 12.3908685,38.5523704 Z M39.1655109,32.2119259 C39.1655109,36.051037 36.0421224,39.1740741 32.2025793,39.1740741 L30.298365,39.1740741 C34.0777532,37.2208148 37.1824729,34.1418519 39.1660295,30.381037 L39.1660295,32.2119259 L39.1655109,32.2119259 Z M38.6713071,29.0468889 L32.1782061,25.4177778 C32.774051,23.9752593 33.104903,22.3963704 33.104903,20.7407407 C33.104903,19.0327407 32.754345,17.4056296 32.1221998,15.9262963 L38.6106336,12.2997778 C39.8298079,14.8597037 40.5143293,17.7214074 40.5143293,20.7407407 C40.5138108,23.7077037 39.8505509,26.5211852 38.6713071,29.0468889 Z M32.2072464,2.3182963 C36.0467896,2.3182963 39.1701781,5.44133333 39.1701781,9.28044444 L39.1701781,11.1097778 C37.1902516,7.35155556 34.0917548,4.27414815 30.3191081,2.31881481 L32.2072464,2.31881481 L32.2072464,2.3182963 Z M29.1403828,2.89125926 L25.5113819,9.38259259 C24.061441,8.78007407 22.4735586,8.44614815 20.8084082,8.44614815 C19.1432579,8.44614815 17.5548569,8.78059259 16.1054346,9.38259259 L12.4764336,2.89125926 C15.0081259,1.70437037 17.8312584,1.03703704 20.8078897,1.03703704 C23.7845209,1.03703704 26.6076534,1.70437037 29.1403828,2.89125926 Z M2.45441704,9.28044444 C2.45441704,5.44185185 5.57780553,2.3182963 9.41734869,2.3182963 L11.2966713,2.3182963 C7.52972888,4.27051852 4.43434353,7.3417037 2.45441704,11.0916296 L2.45441704,9.28044444 Z M3.00566425,12.2997778 L9.49409806,15.9262963 C8.86195286,17.4056296 8.51139489,19.0327407 8.51139489,20.7407407 C8.51139489,22.3958519 8.84224694,23.9747407 9.43809176,25.4177778 L2.94499076,29.0468889 C1.76522838,26.5211852 1.10196856,23.7077037 1.10196856,20.7407407 C1.10196856,17.7219259 1.78649003,14.8602222 3.00566425,12.2997778 Z" id="Shape"></path>
                    </g>
                </g>
            </g>
        </g>
    </g>
</svg>