<?xml version="1.0" encoding="UTF-8"?>
<svg width="39px" height="40px" viewBox="0 0 39 40" version="1.1" xmlns="http://www.w3.org/2000/svg" xmlns:xlink="http://www.w3.org/1999/xlink">
    <!-- Generator: Sketch 50.2 (55047) - http://www.bohemiancoding.com/sketch -->
    <title>Group 9</title>
    <desc>Created with Sketch.</desc>
    <defs></defs>
    <g id="Page-1" stroke="none" stroke-width="1" fill="none" fill-rule="evenodd">
        <g id="Practice-Areas" transform="translate(-810.000000, -540.000000)" fill="#FFFFFF" fill-rule="nonzero">
            <g id="areas" transform="translate(80.000000, 164.000000)">
                <g id="Group-17" transform="translate(670.000000, 376.000000)">
                    <g id="Group-9" transform="translate(60.000000, 0.000000)">
                        <path d="M37.5748357,1.42757521 C36.6543497,0.507089181 35.4133373,0 34.0810981,0 C32.6502355,0 31.2904639,0.571194458 30.2388908,1.62358943 L24.2306648,8.0464451 L4.35227576,2.09657131 L0.734436903,5.71441017 C0.126669562,6.32217751 0.126669562,7.31087813 0.734436903,7.91823454 L0.796076593,7.98028516 L16.3116084,16.5198478 L10.5281617,22.7951791 C10.0531252,23.2702157 9.65164535,23.7929202 9.33111896,24.3530196 L2.73074099,22.6451892 L0.388021847,24.9879084 C-0.129340616,25.5048599 -0.129340616,26.346858 0.388021847,26.8642205 L0.457469231,26.9340788 L7.86655994,30.6920452 L8.39871592,31.2242012 L12.1575042,38.6337029 L12.2265407,38.7027393 C12.4772087,38.9538183 12.810474,39.0918912 13.1655186,39.0918912 C13.5197413,39.0918912 13.8530066,38.9538183 14.1036747,38.7035612 L16.4463938,36.360842 L14.7065108,29.6375956 C15.2460636,29.3220004 15.7461669,28.9353141 16.1891508,28.4919193 L22.5092737,22.6653248 L31.0681501,38.2178404 L31.1108869,38.2946846 L31.1725266,38.3563243 C31.7618021,38.9455997 32.7874865,38.9460106 33.376351,38.3567352 L36.9946008,34.7388963 L31.0048667,14.7261328 L37.393615,8.74913756 C39.462654,6.68009864 39.5436074,3.39593597 37.5748357,1.42757521 Z M29.6048238,14.3476651 L35.6027766,34.3875501 L32.5047658,37.48515 C32.3971018,37.592814 32.2183467,37.6092512 32.0954782,37.526654 L22.830211,20.6924438 L15.3352357,27.602664 C14.8503368,28.0875629 14.3054419,28.4808241 13.7161665,28.7709416 L13.2661968,28.9928445 L15.076349,35.9873055 L13.2320895,37.831565 C13.2016805,37.8611521 13.17497,37.8627958 13.1457939,37.8570428 L9.4091959,30.4910999 L8.59925038,29.6811543 L1.23454025,25.9453782 C1.22796535,25.9153802 1.23659491,25.8825057 1.26001799,25.8590826 L3.10427751,24.0148231 L9.98655433,25.7957992 L10.2055807,25.3380218 C10.49652,24.7306654 10.8984108,24.1685114 11.417417,23.6486834 L18.2857222,16.1980886 L1.56533992,6.99569385 C1.48150994,6.86912702 1.49548161,6.69694682 1.60643305,6.58558445 L4.70403292,3.48798458 L24.6087215,9.44648792 L31.1248586,2.48038111 C31.9290511,1.6757777 32.9789805,1.23279379 34.0806872,1.23279379 C35.0837704,1.23279379 36.0149406,1.61126149 36.7028396,2.29916043 C38.1908217,3.78714254 38.1098682,6.28930301 36.5368234,7.86316975 L29.6048238,14.3476651 Z" id="Shape"></path>
                    </g>
                </g>
            </g>
        </g>
    </g>
</svg>