<?xml version="1.0" encoding="UTF-8"?>
<svg width="29px" height="42px" viewBox="0 0 29 42" version="1.1" xmlns="http://www.w3.org/2000/svg" xmlns:xlink="http://www.w3.org/1999/xlink">
    <!-- Generator: Sketch 50.2 (55047) - http://www.bohemiancoding.com/sketch -->
    <title>Group 2</title>
    <desc>Created with Sketch.</desc>
    <defs></defs>
    <g id="Page-1" stroke="none" stroke-width="1" fill="none" fill-rule="evenodd">
        <g id="Contact" transform="translate(-316.000000, -730.000000)" fill="#FFFFFF" fill-rule="nonzero">
            <g id="Group-2" transform="translate(316.000000, 730.000000)">
                <path d="M14.28,0 C6.40584,0 0,6.40584 0,14.28 C0,21.8778 13.03428,40.83408 13.58868,41.63712 C13.74576,41.86476 14.00364,42 14.28,42 C14.55636,42 14.81424,41.86476 14.97132,41.63712 C15.52572,40.83408 28.56,21.8778 28.56,14.28 C28.56,6.40584 22.15416,0 14.28,0 Z M14.28,39.66144 C11.55,35.5824 1.68,20.41116 1.68,14.28 C1.68,7.33236 7.33236,1.68 14.28,1.68 C21.22764,1.68 26.88,7.33236 26.88,14.28 C26.88,20.40948 17.01,35.5824 14.28,39.66144 Z" id="Shape"></path>
                <path d="M14.28,10.08 C11.96412,10.08 10.08,11.96412 10.08,14.28 C10.08,16.59588 11.96412,18.48 14.28,18.48 C16.59588,18.48 18.48,16.59588 18.48,14.28 C18.48,11.96412 16.59588,10.08 14.28,10.08 Z M14.28,16.8 C12.89064,16.8 11.76,15.66936 11.76,14.28 C11.76,12.89064 12.89064,11.76 14.28,11.76 C15.66936,11.76 16.8,12.89064 16.8,14.28 C16.8,15.66936 15.66936,16.8 14.28,16.8 Z" id="Shape"></path>
            </g>
        </g>
    </g>
</svg>