<?xml version="1.0" encoding="UTF-8"?>
<svg width="47px" height="45px" viewBox="0 0 47 45" version="1.1" xmlns="http://www.w3.org/2000/svg" xmlns:xlink="http://www.w3.org/1999/xlink">
    <!-- Generator: Sketch 50.2 (55047) - http://www.bohemiancoding.com/sketch -->
    <title>Group 10</title>
    <desc>Created with Sketch.</desc>
    <defs></defs>
    <g id="Page-1" stroke="none" stroke-width="1" fill="none" fill-rule="evenodd">
        <g id="Practice-Areas" transform="translate(-309.000000, -1260.000000)" fill="#FFFFFF" fill-rule="nonzero" stroke="#FFFFFF" stroke-width="0.25">
            <g id="areas" transform="translate(80.000000, 164.000000)">
                <g id="Group-16" transform="translate(170.000000, 1097.000000)">
                    <g id="Group-10" transform="translate(60.000000, 0.000000)">
                        <path d="M0.160426831,16.2057138 C0.0574908441,16.3086498 0,16.4471754 0,16.5928188 C0,16.7384623 0.0574908441,16.8775354 0.160426831,16.9799239 L6.21120128,23.0306983 C6.31413727,23.1336343 6.45266283,23.1911251 6.5983063,23.1911251 C6.74394977,23.1911251 6.88302286,23.1336343 6.98541132,23.0306983 L10.1939479,19.8216142 C10.4704515,19.5456581 10.6232129,19.1777167 10.6232129,18.7862314 C10.6232129,18.3947462 10.4709991,18.0268048 10.1939479,17.7503012 C10.0499471,17.6063003 10.0499471,17.3719567 10.1944955,17.2279558 L11.7264896,15.6954141 C11.871038,15.5519608 12.1053816,15.5514133 12.248835,15.6959617 L15.6484602,19.0955869 C15.8537847,19.3009114 16.2173458,19.3009114 16.4226703,19.0955869 L17.294341,18.2244638 L24.3777605,26.136299 L24.0470512,26.4670082 C23.9441152,26.5699442 23.8866244,26.7084697 23.8866244,26.8541132 C23.8866244,26.9997567 23.9441152,27.1388298 24.0470512,27.2412182 L38.6595812,41.8537482 C39.3834183,42.5775853 40.3350287,42.9395038 41.2855439,42.9395038 C42.2366068,42.9395038 43.1882171,42.5775853 43.9120542,41.8537482 C44.6134425,41.1523599 45,40.2199132 45,39.2277854 C45,38.2356577 44.6134425,37.3026635 43.9120542,36.6018227 L29.2995243,21.9887452 C29.0854393,21.7746603 28.7393992,21.7746603 28.5253142,21.9887452 L28.1951525,22.3189069 L20.2827698,15.2360349 L21.1544405,14.3649118 C21.2573765,14.2619758 21.3148673,14.1234502 21.3148673,13.9778067 C21.3148673,13.8321633 21.2573765,13.6930902 21.1544405,13.5907017 L17.2543711,9.69063237 C16.8404371,9.27615076 16.6915084,8.85345617 16.7867789,8.35848738 C17.2806527,5.78235004 23.7995668,2.45883172 26.269483,1.39552487 C26.4868532,1.30134939 26.6199034,1.07850393 26.5985496,0.841970173 C26.5766484,0.605436414 26.4052709,0.410515076 26.1742125,0.357952019 C17.9294779,-1.50529886 11.803144,4.49948292 11.5463516,4.75682289 L7.46395415,8.83976788 C7.18690304,9.11627146 7.03523672,9.48421286 7.03523672,9.87569813 C7.03523672,10.2666359 7.18690304,10.6345773 7.46395415,10.9110809 C7.63916434,11.0862911 7.63916434,11.3211822 7.49516347,11.4651831 L5.96316936,12.9977247 C5.81862095,13.1411781 5.58537238,13.1411781 5.44082397,12.9977247 C4.88781681,12.4436225 3.92306569,12.4436225 3.37005853,12.9977247 L0.160426831,16.2057138 Z M25.2083663,26.8535657 L28.9124192,23.1500603 L43.1378442,37.3754852 C43.6322654,37.8699065 43.9049363,38.5274922 43.9049363,39.2272379 C43.9049363,39.9269836 43.6322654,40.5845694 43.1378442,41.0789906 C42.1161498,42.1006851 40.4549381,42.1001375 39.4337912,41.0789906 L25.2083663,26.8535657 Z M18.0696461,17.4486111 L19.5069172,16.01134 L27.4187524,23.0947595 L25.1530656,25.3604463 L18.0696461,17.4486111 Z M1.32174188,16.5928188 L4.14372103,13.7713872 C4.14372103,13.7713872 4.14372103,13.7713872 4.14426856,13.7713872 C4.28334165,13.6312191 4.52589826,13.6317666 4.66606641,13.7713872 C5.2365946,14.3430105 6.16411355,14.342463 6.73683186,13.7719348 L8.2693735,12.2388456 C8.83990169,11.6677699 8.83990169,10.7391559 8.26992103,10.1680801 C8.09416331,9.99286995 8.09416331,9.75797879 8.23761665,9.61397791 L12.3200141,5.53103292 C12.3742198,5.47682727 17.40768,0.558896207 24.1822916,1.15296826 C21.4084953,2.50591946 16.2441749,5.36786843 15.7097838,8.15206788 C15.5471668,8.99909965 15.8132673,9.79904368 16.479066,10.4648424 L19.9920304,13.9778067 L16.0344702,17.9348194 L13.0219499,14.9217516 C12.7366859,14.6364876 12.3616265,14.4941293 11.9860197,14.4941293 C11.6109604,14.4941293 11.2364486,14.6364876 10.950637,14.9212041 L9.41809532,16.4542933 C8.84756713,17.0259165 8.84756713,17.9545306 9.41809532,18.5250587 C9.4881794,18.5951428 9.52650663,18.6876757 9.52650663,18.786779 C9.52650663,18.8853347 9.4881794,18.9778676 9.41809532,19.0474041 L6.59666371,21.8699308 L1.32174188,16.5928188 Z M40.502546,39.508843 C40.002392,39.508843 39.5969371,39.103388 39.5969371,38.603234 C39.5969371,38.10308 40.002392,37.697625 40.502546,37.697625 C41.0027001,37.697625 41.408155,38.10308 41.408155,38.603234 C41.408155,39.103388 41.0027001,39.508843 40.502546,39.508843 Z" id="Shape"></path>
                    </g>
                </g>
            </g>
        </g>
    </g>
</svg>