<?xml version="1.0" encoding="utf-8"?>
<!-- Generator: Adobe Illustrator 22.0.1, SVG Export Plug-In . SVG Version: 6.00 Build 0)  -->
<svg version="1.1" id="Layer_1" xmlns="http://www.w3.org/2000/svg" xmlns:xlink="http://www.w3.org/1999/xlink" x="0px" y="0px"
	 viewBox="0 0 651 58" style="enable-background:new 0 0 651 58;" xml:space="preserve">
<style type="text/css">
	.st0{clip-path:url(#SVGID_2_);fill:#FFFFFF;}
	.st1{clip-path:url(#SVGID_4_);fill:#FFFFFF;}
	.st2{clip-path:url(#SVGID_6_);fill:#FFFFFF;}
	.st3{clip-path:url(#SVGID_8_);fill:#FFFFFF;}
	.st4{clip-path:url(#SVGID_10_);fill:#FFFFFF;}
	.st5{clip-path:url(#SVGID_12_);fill:#FFFFFF;}
	.st6{clip-path:url(#SVGID_14_);fill:#FFFFFF;}
	.st7{clip-path:url(#SVGID_16_);fill:#FFFFFF;}
	.st8{clip-path:url(#SVGID_18_);fill:#FFFFFF;}
	.st9{clip-path:url(#SVGID_20_);fill:#FFFFFF;}
</style>
<title>logo copy</title>
<desc>Created with Sketch.</desc>
<g id="Symbols">
</g>
<g>
	<defs>
		<path id="SVGID_1_" d="M49.9,28.7c0,16.5-12.5,29.2-30.7,29.2c-4.1,0-9.6-1-13.6-1c-2.4,0-6.4,0.4-7.1,0.4c-0.5,0-0.6-0.2-0.6-0.5
			c0-0.6,0.5-0.6,2-1.2c2.3-1,2.2-3.3,2.2-27.1C2.2,6,2.2,3.2-0.2,2.1C-1.6,1.5-2,1.4-2,0.9c0-0.3,0.2-0.5,0.6-0.5
			c0.7,0,4.2,0.4,7.1,0.4c3.2,0,10.3-0.8,13.6-0.8C37.4-0.1,49.9,12.3,49.9,28.7 M42,28.7C42,8.6,32,1.2,19.5,1.2
			c-4.8,0-9,1-9.7,3.2c-0.6,1.9-0.6,5.7-0.6,24.1c0,11.4-0.1,22.9,0.8,25.2c0.8,2.2,4.3,3.1,9.6,3.1C32,56.7,42,48.8,42,28.7"/>
	</defs>
	<clipPath id="SVGID_2_">
		<use xlink:href="#SVGID_1_"  style="overflow:visible;"/>
	</clipPath>
	<rect x="-7" y="-5.1" class="st0" width="61.9" height="68"/>
</g>
<g>
	<defs>
		<path id="SVGID_3_" d="M106.9,57.3c0-0.6,0.4-0.6,1.5-0.9c2.9-1,3.3-2.5,3.3-3.9c0-1.4-1.4-5.8-3.6-12.3c-0.2-0.6-0.5-0.9-1.4-1
			C105,39,101.4,39,94.2,39c-5.7,0-8.6,0.1-9.5,0.2c-0.7,0.1-0.9,0.3-1.1,0.9c-1.1,3.3-2,5.9-2.6,7.8c-0.5,1.6-0.6,2.7-0.6,3.6
			c0,2.5,1.6,4,4.5,4.9c0.9,0.2,1.3,0.4,1.3,0.8c0,0.4-0.3,0.6-0.8,0.6c-0.8,0-4.9-0.5-7.7-0.5c-2.3,0-5.1,0.5-5.7,0.5
			c-0.5,0-0.9-0.2-0.9-0.6c0-0.5,0.3-0.7,1.1-0.9c3.8-1.1,4.5-2.5,7.5-10c5-13.2,10.4-28.8,13.6-38.2C93.7,7,94,5.9,94,5.4
			c0-0.6-0.4-1.1-2.3-1.8c-0.9-0.3-1.3-0.4-1.3-0.9c0-0.4,0.3-0.7,0.9-0.7c6.6-0.2,10-2.1,10.6-2.1c0.4,0,0.6,0.2,0.6,0.7
			c0,0.5-0.6,0.8-0.6,1.6c0,0.4,0.1,0.9,0.6,2.4c4.3,12.2,11.5,32,15.9,44c1.9,5.1,2.9,6.6,5.2,7.4c1.5,0.5,2.2,0.7,2.2,1.3
			c0,0.4-0.3,0.6-0.8,0.6c-1.1,0-5.4-0.5-8.9-0.5c-3.2,0-7.8,0.5-8.6,0.5C107.2,57.9,106.9,57.8,106.9,57.3 M106.1,37.2
			c0.4-0.1,0.7-0.3,0.7-0.5c0-0.2-0.1-0.5-0.2-0.7c-3.7-10.6-8.5-23.7-10.7-30c-0.1-0.2-0.1-0.3-0.2-0.3c-0.1,0-0.1,0.1-0.2,0.3
			c-3.3,9.6-7.4,21.2-10.6,30.2c-0.1,0.3-0.2,0.6-0.2,0.8c0,0.2,0.1,0.3,0.5,0.4c0.8,0.2,3.4,0.3,9.5,0.3
			C100.1,37.5,104.6,37.4,106.1,37.2"/>
	</defs>
	<clipPath id="SVGID_4_">
		<use xlink:href="#SVGID_3_"  style="overflow:visible;"/>
	</clipPath>
	<rect x="66" y="-5.1" class="st1" width="65" height="68"/>
</g>
<g>
	<defs>
		<path id="SVGID_5_" d="M158.3,57.4c-6.6-18.1-13.8-37.1-17.8-47.4c-2-5.1-3.9-7-6.7-8.1c-1.4-0.6-1.9-0.8-1.9-1.4
			c0-0.4,0.3-0.6,0.8-0.6c0.7,0,6.1,0.6,9.7,0.6c3.1,0,7.9-0.6,9.2-0.6c0.3,0,0.8,0.1,0.8,0.6c0,0.5-0.4,0.6-2.2,1.1
			c-2.5,0.7-3.4,1.6-3.4,3.5c0,4,12.1,35.2,14.8,43c0.1,0.2,0.1,0.3,0.2,0.3c0.1,0,0.1-0.1,0.2-0.3c5.5-13.9,12.2-31,14.7-38.3
			c0.5-1.6,0.8-2.8,0.8-3.8c0-2.4-1.4-3.8-4.2-4.6c-0.9-0.3-1.2-0.4-1.2-0.8c0-0.4,0.3-0.6,0.8-0.6c0.8,0,4.7,0.5,7.5,0.5
			c2.5,0,5.3-0.5,5.8-0.5c0.5,0,0.8,0.2,0.8,0.6c0,0.5-0.3,0.7-1,0.9c-3.3,0.7-5.1,2.6-7.2,7.9c-6.9,17.1-12.9,32.5-18.9,48
			c-0.1,0.3-0.4,0.5-0.8,0.5C158.6,57.9,158.5,57.7,158.3,57.4"/>
	</defs>
	<clipPath id="SVGID_6_">
		<use xlink:href="#SVGID_5_"  style="overflow:visible;"/>
	</clipPath>
	<rect x="127" y="-5.1" class="st2" width="65" height="68"/>
</g>
<g>
	<defs>
		<path id="SVGID_7_" d="M213,57.4c0-0.5,0.4-0.7,1.5-1.1c2.9-1,2.9-4.2,2.9-27.7c0-22.6,0.1-25.9-2.9-27c-1.1-0.4-1.5-0.5-1.5-1
			c0-0.4,0.2-0.6,0.6-0.6c0.7,0,4,0.6,7.3,0.6c3.2,0,6.6-0.6,7.3-0.6c0.4,0,0.6,0.2,0.6,0.6c0,0.5-0.4,0.6-1.5,1
			c-2.9,1.1-2.8,4.4-2.8,27c0,23.5-0.1,26.7,2.8,27.7c1.1,0.4,1.5,0.6,1.5,1.1c0,0.4-0.2,0.5-0.6,0.5c-0.7,0-4.4-0.6-7.3-0.6
			c-2.9,0-6.6,0.6-7.3,0.6C213.2,57.9,213,57.8,213,57.4"/>
	</defs>
	<clipPath id="SVGID_8_">
		<use xlink:href="#SVGID_7_"  style="overflow:visible;"/>
	</clipPath>
	<rect x="208" y="-5.1" class="st3" width="25.8" height="68"/>
</g>
<g>
	<defs>
		<path id="SVGID_9_" d="M257.4,57c0-0.9,0.3-4.5,0.3-8.1c0-5.8-0.7-11.1-0.7-12c0-0.4,0.2-0.7,0.7-0.7c0.4,0,0.6,0.2,0.9,1
			c3.4,9.4,7.8,19.4,20.8,19.4c8.6,0,13.3-5,13.3-12.2c0-6.3-3.7-10.1-12.9-12.4l-7.2-1.9c-9.7-2.5-14.5-7.2-14.5-15.1
			c0-9.4,8.2-14.9,17.2-14.9c9.1,0,12.8,4.7,15.3,4.7c1.4,0,1.3-1.4,1.5-2.8c0.1-1.1,0.3-1.6,0.9-1.6c0.6,0,0.8,0.3,0.8,0.8
			c0,0.4,0,4.8,0.3,8c0.2,1.9,1.1,9.2,1.1,9.7c0,0.4-0.3,0.6-0.7,0.6c-0.4,0-0.7-0.2-0.9-0.8c-3-8.4-7.5-17.3-18-17.3
			c-7.5,0-12.5,4.2-12.5,10.8c0,6.2,4.1,9.1,12.4,11.3l7.3,1.9c10,2.6,15,7.3,15,15.6c0,10.5-8.2,16.9-19.2,16.9
			c-9.4,0-14.9-4.4-17.5-4.4c-1.2,0-1.8,0.7-2.3,3.4c-0.1,0.6-0.3,1-0.8,1C257.6,57.9,257.4,57.7,257.4,57"/>
	</defs>
	<clipPath id="SVGID_10_">
		<use xlink:href="#SVGID_9_"  style="overflow:visible;"/>
	</clipPath>
	<rect x="252" y="-5.1" class="st4" width="51" height="68"/>
</g>
<g>
	<defs>
		<path id="SVGID_11_" d="M346-0.1c0.4,0,0.6,0.2,0.6,0.5c0,0.5-0.5,0.6-2,1.4c-2.2,1.2-2.1,3.3-2.1,28.3c0,20.9,0,22.6,1,24
			c1,1.5,4.1,2.1,10.8,2.1c11.1,0,13.8-2.8,15.6-13.4c0.1-0.6,0.3-0.8,0.7-0.8c0.4,0,0.5,0.2,0.5,0.7c0,1.5-1.3,7.7-1.3,10.8
			c0,2.5,0.9,2.8,0.9,3.8c0,0.4-0.2,0.5-0.6,0.5c-1.2,0-7.6-0.6-16.2-0.6c-13.2,0-16.1,0.5-17.1,0.5c-0.4,0-0.6-0.2-0.6-0.5
			s0.4-0.5,1.5-1.3c1.9-1.4,1.9-2.6,1.9-25.8c0-24.9,0.2-27.1-1.8-28.3C336.5,1.2,336,1,336,0.5c0-0.4,0.2-0.5,0.6-0.5
			c0.6,0,2.2,0.6,4.3,0.6C343.2,0.6,345.1-0.1,346-0.1"/>
	</defs>
	<clipPath id="SVGID_12_">
		<use xlink:href="#SVGID_11_"  style="overflow:visible;"/>
	</clipPath>
	<rect x="331" y="-5.1" class="st5" width="45" height="68"/>
</g>
<g>
	<defs>
		<path id="SVGID_13_" d="M445.1,53.5c0,1.9,0.7,3.3,0.7,3.9c0,0.4-0.1,0.5-0.7,0.5c-2.3,0-9.5-0.3-26.1-0.3
			c-8.3,0-11.6,0.3-12.3,0.3c-0.6,0-0.7-0.2-0.7-0.5c0-0.5,0.5-0.6,1.8-1c3.9-1.3,4-2.4,4-27.5c0-24.8-0.2-25.9-4-27.2
			C406.5,1.3,406,1,406,0.5c0-0.4,0.1-0.5,0.7-0.5c1,0,5,0.3,8.5,0.3c18.2,0,26.1-0.3,28.6-0.3c0.6,0,0.7,0.2,0.7,0.5
			c0,0.6-0.7,2-0.7,3.9c0,3.5,1,7.5,1,7.8c0,0.5-0.2,0.7-0.6,0.7c-0.5,0-0.9-0.4-1-1C441,2.4,439,1.4,427.7,1.4
			c-8.4,0-10.6,0.4-11.7,1.7c-1,1.3-1,3.3-1,21.3l0,0c0,2.2,1.2,2.4,7.8,2.4c8.8,0,9.7-1.9,10.7-8c0.1-0.5,0.5-0.7,0.9-0.7
			c0.2,0,0.5,0.2,0.5,0.6c0,0.6-0.5,4.1-0.5,8.8c0,5.5,0.5,8,0.5,8.8c0,0.5-0.3,0.7-0.5,0.6c-0.4-0.1-0.7-0.2-0.8-0.8
			c-0.7-6.1-2-8-10.8-8c-6.7,0-7.8,0.2-7.8,2.5l0,0c0,21.6,0.6,23.1,1.4,24.1c1,1.4,2.6,1.9,10.3,1.9c14,0,16.1-1.1,17.8-12.7
			c0.1-0.7,0.5-1.1,1-1.1c0.4,0,0.6,0.2,0.6,0.7C446.1,43.8,445.1,49,445.1,53.5"/>
	</defs>
	<clipPath id="SVGID_14_">
		<use xlink:href="#SVGID_13_"  style="overflow:visible;"/>
	</clipPath>
	<rect x="401" y="-5.1" class="st6" width="50.1" height="68"/>
</g>
<g>
	<defs>
		<path id="SVGID_15_" d="M516.2,56.8c-0.5-4.5-0.9-5.4-1.7-5.4c-1.6,0-4.7,6.5-17.8,6.5c-16.1,0-26.7-13-26.7-28.7
			c0-15.9,11.4-28.7,26.7-28.7c9.8,0,13.6,4.2,15.8,4.2c1.3,0,1.6-1.2,1.8-3.2c0.1-1.3,0.3-1.7,1-1.7c0.5,0,0.8,0.2,0.8,0.8
			c0,12.4,1.3,16.9,1.3,18.5c0,0.4-0.2,0.6-0.7,0.6c-0.4,0-0.8-0.3-0.9-0.8c-3.2-13.8-9.9-17.3-19.1-17.3
			c-10.4,0-22.7,6.8-22.7,27.5c0,20.2,11.4,27.6,22.7,27.6c9.9,0,17.7-4.1,17.7-11.8v-2.8c0-3.9-0.3-4.5-2.7-5.3
			c-1.1-0.3-1.3-0.4-1.3-0.9c0-0.3,0.2-0.5,0.6-0.5c0.6,0,3.3,0.5,4.8,0.5c2.3,0,4.8-0.3,5.6-0.3c0.4,0,0.6,0.2,0.6,0.4
			c0,0.9-2.9,0.9-3.6,1.6c-0.6,0.7-0.9,1.9-0.9,10.8v8.1c0,0.9-0.2,1.2-0.7,1.2C516.5,57.9,516.3,57.7,516.2,56.8"/>
	</defs>
	<clipPath id="SVGID_16_">
		<use xlink:href="#SVGID_15_"  style="overflow:visible;"/>
	</clipPath>
	<rect x="465" y="-5.1" class="st7" width="62" height="68"/>
</g>
<g>
	<defs>
		<path id="SVGID_17_" d="M576.6,57.3c0-0.5,0.4-0.6,1.5-0.9c2.7-1,3.1-2.4,3.1-3.9c0-1.1-1.3-5.3-3.8-12.2
			c-0.2-0.5-0.4-0.7-1.1-0.8c-1.5-0.2-4.8-0.2-13.3-0.2c-6.7,0-9.7,0.1-10.5,0.2c-0.6,0.1-0.8,0.4-0.9,0.9c-1.1,3.1-2,5.7-2.7,7.7
			c-0.5,1.6-0.7,2.8-0.7,3.6c0,2.5,1.6,4,4.1,4.8c0.9,0.2,1.3,0.4,1.3,0.8c0,0.4-0.3,0.6-0.8,0.6c-0.8,0-4.6-0.5-7.4-0.5
			c-2.3,0-4.8,0.5-5.5,0.5c-0.5,0-0.9-0.2-0.9-0.6c0-0.5,0.4-0.6,1.3-0.9c3.8-1.3,4.2-2.3,7.2-9.7c5.4-13.8,10.2-27.6,13.9-38.3
			c0.5-1.4,1-2.6,1-3.3c0-0.7-0.4-1.3-2.3-2c-0.6-0.1-0.9-0.3-0.9-0.7c0-0.4,0.3-0.7,0.9-0.7c4.9,0,6.2-1.7,6.8-1.7
			c0.4,0,0.6,0.2,0.6,0.7c0,0.4-0.6,0.7-0.6,1.4c0,0.5,0,0.8,0.6,2.5c5.1,13.9,12,32.9,16.3,44.7c1.8,5.1,2.7,6.2,5,6.9
			c1.5,0.5,2.2,0.7,2.2,1.2c0,0.4-0.3,0.6-0.8,0.6c-1,0-4-0.4-6.2-0.4c-2.1,0-5.8,0.4-6.5,0.4C577,57.8,576.6,57.8,576.6,57.3
			 M575.5,37.4c0.4,0,0.6-0.2,0.6-0.4c0-0.2-0.1-0.4-0.2-0.7c-4.1-11.4-9.6-26.2-11.7-31.8c0-0.1-0.1-0.1-0.1-0.1c0,0-0.1,0-0.1,0.1
			c-3.5,10.1-8,22.8-11.3,32c-0.1,0.2-0.1,0.4-0.1,0.6c0,0.1,0.1,0.2,0.4,0.3c0.8,0.2,3.2,0.3,10.3,0.3
			C569.2,37.9,573.7,37.7,575.5,37.4"/>
	</defs>
	<clipPath id="SVGID_18_">
		<use xlink:href="#SVGID_17_"  style="overflow:visible;"/>
	</clipPath>
	<rect x="534" y="-5.1" class="st8" width="62" height="68"/>
</g>
<g>
	<defs>
		<path id="SVGID_19_" d="M628-0.1c0.4,0,0.6,0.2,0.6,0.5c0,0.5-0.5,0.6-2,1.4c-2.2,1.2-2.1,3.3-2.1,28.3c0,20.9,0,22.6,1,24
			c1,1.5,4.1,2.1,10.8,2.1c11.1,0,13.8-2.8,15.6-13.4c0.1-0.6,0.3-0.8,0.7-0.8s0.5,0.2,0.5,0.7c0,1.5-1.3,7.7-1.3,10.8
			c0,2.5,0.9,2.8,0.9,3.8c0,0.4-0.2,0.5-0.6,0.5c-1.2,0-7.6-0.6-16.2-0.6c-13.2,0-16.1,0.5-17.1,0.5c-0.4,0-0.6-0.2-0.6-0.5
			s0.4-0.5,1.5-1.3c1.9-1.4,1.9-2.6,1.9-25.8c0-24.9,0.2-27.1-1.8-28.3C618.5,1.2,618,1,618,0.5c0-0.4,0.2-0.5,0.6-0.5
			c0.6,0,2.2,0.6,4.3,0.6C625.2,0.6,627.1-0.1,628-0.1"/>
	</defs>
	<clipPath id="SVGID_20_">
		<use xlink:href="#SVGID_19_"  style="overflow:visible;"/>
	</clipPath>
	<rect x="613" y="-5.1" class="st9" width="45" height="68"/>
</g>
</svg>
