<?xml version="1.0" encoding="UTF-8"?>
<svg width="26px" height="15px" viewBox="0 0 26 15" version="1.1" xmlns="http://www.w3.org/2000/svg" xmlns:xlink="http://www.w3.org/1999/xlink">
    <!-- Generator: Sketch 50.2 (55047) - http://www.bohemiancoding.com/sketch -->
    <title>dl</title>
    <desc>Created with Sketch.</desc>
    <defs></defs>
    <g id="Symbols" stroke="none" stroke-width="1" fill="none" fill-rule="evenodd">
        <g id="footer" transform="translate(-628.000000, -17.000000)" fill="#FEFEFE">
            <g id="dl" transform="translate(628.000000, 17.000000)">
                <path d="M11.6494,7.1812 C11.6494,2.4322 9.1834,0.6982 6.1004,0.6982 C4.9234,0.6982 3.8934,0.9442 3.7164,1.4542 C3.5664,1.9062 3.5624,2.7902 3.5624,7.1142 C3.5624,9.7972 3.5354,12.5092 3.7494,13.0482 C3.9484,13.5692 4.8144,13.7672 6.1004,13.7672 C9.1834,13.7672 11.6494,11.8942 11.6494,7.1812 M13.5794,7.1812 C13.5794,11.0602 10.5014,14.0512 6.0454,14.0512 C5.0474,14.0512 3.6904,13.8162 2.7114,13.8162 C2.1324,13.8162 1.1454,13.9012 0.9754,13.9012 C0.8644,13.9012 0.8284,13.8592 0.8264,13.7782 C0.8284,13.6432 0.9554,13.6412 1.3144,13.4912 C1.8744,13.2612 1.8594,12.7122 1.8594,7.1142 C1.8594,1.8242 1.8484,1.1812 1.2664,0.9172 C0.9284,0.7662 0.8284,0.7592 0.8264,0.6322 C0.8284,0.5502 0.8644,0.5072 0.9754,0.5072 C1.1454,0.5072 2.0024,0.5932 2.7114,0.5932 C3.5044,0.5932 5.2504,0.4042 6.0454,0.4042 C10.5014,0.4042 13.5794,3.3182 13.5794,7.1812" id="Fill-1"></path>
                <path d="M19.665,0.4663 C19.769,0.4663 19.811,0.5083 19.811,0.5923 C19.811,0.7183 19.686,0.7383 19.329,0.9283 C18.804,1.2013 18.825,1.7053 18.825,7.5213 C18.825,12.3923 18.825,12.7913 19.056,13.1273 C19.287,13.4843 20.043,13.6103 21.639,13.6103 C24.288,13.6103 24.914,12.9543 25.347,10.4833 C25.369,10.3543 25.418,10.2923 25.502,10.2923 C25.586,10.2923 25.628,10.3343 25.628,10.4603 C25.628,10.8013 25.312,12.2623 25.312,12.9803 C25.312,13.5683 25.522,13.6313 25.522,13.8623 C25.522,13.9453 25.48,13.9873 25.376,13.9873 C25.082,13.9873 23.57,13.8403 21.513,13.8403 C18.363,13.8403 17.67,13.9453 17.439,13.9453 C17.334,13.9453 17.292,13.9043 17.292,13.8203 C17.292,13.7363 17.397,13.7153 17.649,13.5263 C18.09,13.2113 18.111,12.9163 18.111,7.5213 C18.111,1.7053 18.153,1.2013 17.691,0.9283 C17.418,0.7603 17.292,0.7183 17.292,0.5923 C17.292,0.5083 17.334,0.4663 17.439,0.4663 C17.586,0.4663 17.964,0.6133 18.468,0.6133 C19.014,0.6133 19.455,0.4663 19.665,0.4663" id="Fill-3"></path>
            </g>
        </g>
    </g>
</svg>