<?xml version="1.0" encoding="UTF-8"?>
<svg width="42px" height="43px" viewBox="0 0 42 43" version="1.1" xmlns="http://www.w3.org/2000/svg" xmlns:xlink="http://www.w3.org/1999/xlink">
    <!-- Generator: Sketch 50.2 (55047) - http://www.bohemiancoding.com/sketch -->
    <title>Group 14</title>
    <desc>Created with Sketch.</desc>
    <defs></defs>
    <g id="Page-1" stroke="none" stroke-width="1" fill="none" fill-rule="evenodd">
        <g id="Practice-Areas" transform="translate(-810.000000, -1097.000000)" fill="#FFFFFF">
            <g id="areas" transform="translate(80.000000, 164.000000)">
                <g id="Group-7" transform="translate(670.000000, 933.000000)">
                    <g id="Group-14" transform="translate(60.000000, 0.000000)">
                        <path d="M23.0806823,0.875875 L7.08295893,16.95225 L0.097412,42.874125 L25.9018997,35.85365 L41.8979134,19.7806 L39.4748448,12.51915 L30.3122954,3.3128375 L23.0806823,0.875875 Z M23.4344017,2.3814875 L29.6014374,4.4578625 L38.3282444,13.226675 L40.395884,19.4285875 L25.8455096,34.0489625 L23.83426,28.0179375 L17.1340817,25.76035 L14.8887266,19.030375 L8.8806099,17.005275 L23.4344017,2.3814875 Z M8.12190524,18.1349 L13.851489,20.0643625 L16.096844,26.796 L22.7953137,29.0535875 L24.7177056,34.81625 L9.0771208,39.0716375 L3.88580659,33.85585 L8.12190524,18.1349 Z M3.49107611,35.322175 L7.6195198,39.4681 L1.95999733,41.007925 L3.49107611,35.322175 Z" id="Shape"></path>
                    </g>
                </g>
            </g>
        </g>
    </g>
</svg>