<?xml version="1.0" encoding="utf-8"?>
<!-- Generator: Adobe Illustrator 18.0.0, SVG Export Plug-In . SVG Version: 6.00 Build 0)  -->
<!DOCTYPE svg PUBLIC "-//W3C//DTD SVG 1.1//EN" "http://www.w3.org/Graphics/SVG/1.1/DTD/svg11.dtd">
<svg version="1.1" id="Layer_1" xmlns="http://www.w3.org/2000/svg" xmlns:xlink="http://www.w3.org/1999/xlink" x="0px" y="0px"
	 viewBox="0 0 700 700" enable-background="new 0 0 700 700" xml:space="preserve">
<title>logo copy</title>
<desc>Created with Sketch.</desc>
<g id="Symbols">
</g>
<g>
	<g>
		<defs>
			<path id="SVGID_1_" d="M53.7,349.7c0,17.7-13.4,31.4-33,31.4c-4.4,0-10.3-1.1-14.6-1.1c-2.6,0-6.9,0.4-7.6,0.4
				c-0.5,0-0.6-0.2-0.6-0.5c0-0.6,0.5-0.6,2.2-1.3c2.5-1.1,2.4-3.5,2.4-29.1c0.1-24.2,0.1-27.2-2.5-28.4c-1.5-0.6-1.9-0.8-1.9-1.3
				c0-0.3,0.2-0.5,0.6-0.5c0.8,0,4.5,0.4,7.6,0.4c3.4,0,11.1-0.9,14.6-0.9C40.2,318.7,53.7,332,53.7,349.7 M45.2,349.7
				c0-21.6-10.8-29.6-24.2-29.6c-5.2,0-9.7,1.1-10.4,3.4c-0.6,2-0.6,6.1-0.6,25.9c0,12.3-0.1,24.6,0.9,27.1
				c0.9,2.4,4.6,3.3,10.3,3.3C34.4,379.8,45.2,371.3,45.2,349.7"/>
		</defs>
		<use xlink:href="#SVGID_1_"  overflow="visible"/>
		<clipPath id="SVGID_2_">
			<use xlink:href="#SVGID_1_"  overflow="visible"/>
		</clipPath>
		<rect x="-7.5" y="313.3" clip-path="url(#SVGID_2_)" width="66.6" height="73.1"/>
	</g>
</g>
<g>
	<g>
		<defs>
			<path id="SVGID_3_" d="M114.9,380.4c0-0.6,0.4-0.6,1.6-1c3.1-1.1,3.5-2.7,3.5-4.2c0-1.5-1.5-6.2-3.9-13.2c-0.2-0.6-0.5-1-1.5-1.1
				c-1.8-0.2-5.7-0.2-13.4-0.2c-6.1,0-9.2,0.1-10.2,0.2c-0.8,0.1-1,0.3-1.2,1c-1.2,3.5-2.2,6.3-2.8,8.4c-0.5,1.7-0.6,2.9-0.6,3.9
				c0,2.7,1.7,4.3,4.8,5.3c1,0.2,1.4,0.4,1.4,0.9c0,0.4-0.3,0.6-0.9,0.6c-0.9,0-5.3-0.5-8.3-0.5c-2.5,0-5.5,0.5-6.1,0.5
				c-0.5,0-1-0.2-1-0.6c0-0.5,0.3-0.8,1.2-1c4.1-1.2,4.8-2.7,8.1-10.8c5.4-14.2,11.2-31,14.6-41.1c0.4-1.2,0.8-2.4,0.8-2.9
				c0-0.6-0.4-1.2-2.5-1.9c-1-0.3-1.4-0.4-1.4-1c0-0.4,0.3-0.8,1-0.8c7.1-0.2,10.8-2.3,11.4-2.3c0.4,0,0.6,0.2,0.6,0.8
				c0,0.5-0.6,0.9-0.6,1.7c0,0.4,0.1,1,0.6,2.6c4.6,13.1,12.4,34.4,17.1,47.3c2,5.5,3.1,7.1,5.6,8c1.6,0.5,2.4,0.8,2.4,1.4
				c0,0.4-0.3,0.6-0.9,0.6c-1.2,0-5.8-0.5-9.6-0.5c-3.4,0-8.4,0.5-9.2,0.5C115.3,381.1,114.9,381,114.9,380.4 M114.1,358.8
				c0.4-0.1,0.8-0.3,0.8-0.5s-0.1-0.5-0.2-0.8c-4-11.4-9.1-25.5-11.5-32.3c-0.1-0.2-0.1-0.3-0.2-0.3c-0.1,0-0.1,0.1-0.2,0.3
				c-3.5,10.3-8,22.8-11.4,32.5c-0.1,0.3-0.2,0.6-0.2,0.9s0.1,0.3,0.5,0.4c0.9,0.2,3.7,0.3,10.2,0.3
				C107.6,359.1,112.5,359,114.1,358.8"/>
		</defs>
		<use xlink:href="#SVGID_3_"  overflow="visible"/>
		<clipPath id="SVGID_4_">
			<use xlink:href="#SVGID_3_"  overflow="visible"/>
		</clipPath>
		<rect x="71" y="313.3" clip-path="url(#SVGID_4_)" width="69.9" height="73.1"/>
	</g>
</g>
<g>
	<g>
		<defs>
			<path id="SVGID_5_" d="M170.2,380.5c-7.1-19.5-14.8-39.9-19.1-51c-2.2-5.5-4.2-7.5-7.2-8.7c-1.5-0.6-2-0.9-2-1.5
				c0-0.4,0.3-0.6,0.9-0.6c0.8,0,6.6,0.6,10.4,0.6c3.3,0,8.5-0.6,9.9-0.6c0.3,0,0.9,0.1,0.9,0.6s-0.4,0.6-2.4,1.2
				c-2.7,0.8-3.7,1.7-3.7,3.8c0,4.3,13,37.8,15.9,46.2c0.1,0.2,0.1,0.3,0.2,0.3c0.1,0,0.1-0.1,0.2-0.3c5.9-14.9,13.1-33.3,15.8-41.2
				c0.5-1.7,0.9-3,0.9-4.1c0-2.6-1.5-4.1-4.5-4.9c-1-0.3-1.3-0.4-1.3-0.9c0-0.4,0.3-0.6,0.9-0.6c0.9,0,5.1,0.5,8.1,0.5
				c2.7,0,5.7-0.5,6.2-0.5c0.5,0,0.9,0.2,0.9,0.6c0,0.5-0.3,0.8-1.1,1c-3.5,0.8-5.5,2.8-7.7,8.5c-7.4,18.4-13.9,34.9-20.3,51.6
				c-0.1,0.3-0.4,0.5-0.9,0.5C170.5,381.1,170.4,380.9,170.2,380.5"/>
		</defs>
		<use xlink:href="#SVGID_5_"  overflow="visible"/>
		<clipPath id="SVGID_6_">
			<use xlink:href="#SVGID_5_"  overflow="visible"/>
		</clipPath>
		<rect x="136.6" y="313.3" clip-path="url(#SVGID_6_)" width="69.9" height="73.1"/>
	</g>
</g>
<g>
	<g>
		<defs>
			<path id="SVGID_7_" d="M229,380.5c0-0.5,0.4-0.8,1.6-1.2c3.1-1.1,3.1-4.5,3.1-29.8c0-24.3,0.1-27.8-3.1-29
				c-1.2-0.4-1.6-0.5-1.6-1.1c0-0.4,0.2-0.6,0.6-0.6c0.8,0,4.3,0.6,7.8,0.6c3.4,0,7.1-0.6,7.8-0.6c0.4,0,0.6,0.2,0.6,0.6
				c0,0.5-0.4,0.6-1.6,1.1c-3.1,1.2-3,4.7-3,29c0,25.3-0.1,28.7,3,29.8c1.2,0.4,1.6,0.6,1.6,1.2c0,0.4-0.2,0.5-0.6,0.5
				c-0.8,0-4.7-0.6-7.8-0.6c-3.1,0-7.1,0.6-7.8,0.6C229.2,381.1,229,381,229,380.5"/>
		</defs>
		<use xlink:href="#SVGID_7_"  overflow="visible"/>
		<clipPath id="SVGID_8_">
			<use xlink:href="#SVGID_7_"  overflow="visible"/>
		</clipPath>
		<rect x="223.7" y="313.3" clip-path="url(#SVGID_8_)" width="27.7" height="73.1"/>
	</g>
</g>
<g>
	<g>
		<defs>
			<path id="SVGID_9_" d="M276.8,380.1c0-1,0.3-4.8,0.3-8.7c0-6.2-0.8-11.9-0.8-12.9c0-0.4,0.2-0.8,0.8-0.8c0.4,0,0.6,0.2,1,1.1
				c3.7,10.1,8.4,20.9,22.4,20.9c9.2,0,14.3-5.4,14.3-13.1c0-6.8-4-10.9-13.9-13.3l-7.7-2c-10.4-2.7-15.6-7.7-15.6-16.2
				c0-10.1,8.8-16,18.5-16c9.8,0,13.8,5.1,16.5,5.1c1.5,0,1.4-1.5,1.6-3c0.1-1.2,0.3-1.7,1-1.7s0.9,0.3,0.9,0.9c0,0.4,0,5.2,0.3,8.6
				c0.2,2,1.2,9.9,1.2,10.4c0,0.4-0.3,0.6-0.8,0.6s-0.8-0.2-1-0.9c-3.2-9-8.1-18.6-19.4-18.6c-8.1,0-13.4,4.5-13.4,11.6
				c0,6.7,4.4,9.8,13.3,12.2l7.8,2c10.8,2.8,16.1,7.8,16.1,16.8c0,11.3-8.8,18.2-20.6,18.2c-10.1,0-16-4.7-18.8-4.7
				c-1.3,0-1.9,0.8-2.5,3.7c-0.1,0.6-0.3,1.1-0.9,1.1C277,381.1,276.8,380.9,276.8,380.1"/>
		</defs>
		<use xlink:href="#SVGID_9_"  overflow="visible"/>
		<clipPath id="SVGID_10_">
			<use xlink:href="#SVGID_9_"  overflow="visible"/>
		</clipPath>
		<rect x="271" y="313.3" clip-path="url(#SVGID_10_)" width="54.8" height="73.1"/>
	</g>
</g>
<g>
	<g>
		<defs>
			<path id="SVGID_11_" d="M372,318.7c0.4,0,0.6,0.2,0.6,0.5c0,0.5-0.5,0.6-2.2,1.5c-2.4,1.3-2.3,3.5-2.3,30.4
				c0,22.5,0,24.3,1.1,25.8c1.1,1.6,4.4,2.3,11.6,2.3c11.9,0,14.8-3,16.8-14.4c0.1-0.6,0.3-0.9,0.8-0.9c0.4,0,0.5,0.2,0.5,0.8
				c0,1.6-1.4,8.3-1.4,11.6c0,2.7,1,3,1,4.1c0,0.4-0.2,0.5-0.6,0.5c-1.3,0-8.2-0.6-17.4-0.6c-14.2,0-17.3,0.5-18.4,0.5
				c-0.4,0-0.6-0.2-0.6-0.5s0.4-0.5,1.6-1.4c2-1.5,2-2.8,2-27.7c0-26.8,0.2-29.1-1.9-30.4c-1.4-0.6-1.9-0.9-1.9-1.4
				c0-0.4,0.2-0.5,0.6-0.5c0.6,0,2.4,0.6,4.6,0.6C369,319.5,371.1,318.7,372,318.7"/>
		</defs>
		<use xlink:href="#SVGID_11_"  overflow="visible"/>
		<clipPath id="SVGID_12_">
			<use xlink:href="#SVGID_11_"  overflow="visible"/>
		</clipPath>
		<rect x="355.9" y="313.3" clip-path="url(#SVGID_12_)" width="48.4" height="73.1"/>
	</g>
</g>
<g>
	<g>
		<defs>
			<path id="SVGID_13_" d="M478.6,376.3c0,2,0.8,3.5,0.8,4.2c0,0.4-0.1,0.5-0.8,0.5c-2.5,0-10.2-0.3-28.1-0.3
				c-8.9,0-12.5,0.3-13.2,0.3c-0.6,0-0.8-0.2-0.8-0.5c0-0.5,0.5-0.6,1.9-1.1c4.2-1.4,4.3-2.6,4.3-29.6c0-26.7-0.2-27.8-4.3-29.2
				c-1.4-0.4-1.9-0.8-1.9-1.3c0-0.4,0.1-0.5,0.8-0.5c1.1,0,5.4,0.3,9.1,0.3c19.6,0,28.1-0.3,30.8-0.3c0.6,0,0.8,0.2,0.8,0.5
				c0,0.6-0.8,2.2-0.8,4.2c0,3.8,1.1,8.1,1.1,8.4c0,0.5-0.2,0.8-0.6,0.8c-0.5,0-1-0.4-1.1-1.1c-2.4-10.2-4.5-11.3-16.7-11.3
				c-9,0-11.4,0.4-12.6,1.8c-1.1,1.4-1.1,3.5-1.1,22.9l0,0c0,2.4,1.3,2.6,8.4,2.6c9.5,0,10.4-2,11.5-8.6c0.1-0.5,0.5-0.8,1-0.8
				c0.2,0,0.5,0.2,0.5,0.6c0,0.6-0.5,4.4-0.5,9.5c0,5.9,0.5,8.6,0.5,9.5c0,0.5-0.3,0.8-0.5,0.6c-0.4-0.1-0.8-0.2-0.9-0.9
				c-0.8-6.6-2.2-8.6-11.6-8.6c-7.2,0-8.4,0.2-8.4,2.7l0,0c0,23.2,0.6,24.8,1.5,25.9c1.1,1.5,2.8,2,11.1,2
				c15.1,0,17.3-1.2,19.1-13.7c0.1-0.8,0.5-1.2,1.1-1.2c0.4,0,0.6,0.2,0.6,0.8C479.7,365.9,478.6,371.5,478.6,376.3"/>
		</defs>
		<use xlink:href="#SVGID_13_"  overflow="visible"/>
		<clipPath id="SVGID_14_">
			<use xlink:href="#SVGID_13_"  overflow="visible"/>
		</clipPath>
		<rect x="431.2" y="313.3" clip-path="url(#SVGID_14_)" width="53.9" height="73.1"/>
	</g>
</g>
<g>
	<g>
		<defs>
			<path id="SVGID_15_" d="M555.1,379.9c-0.5-4.8-1-5.8-1.8-5.8c-1.7,0-5.1,7-19.1,7c-17.3,0-28.7-14-28.7-30.9
				c0-17.1,12.3-30.9,28.7-30.9c10.5,0,14.6,4.5,17,4.5c1.4,0,1.7-1.3,1.9-3.4c0.1-1.4,0.3-1.8,1.1-1.8c0.5,0,0.9,0.2,0.9,0.9
				c0,13.3,1.4,18.2,1.4,19.9c0,0.4-0.2,0.6-0.8,0.6c-0.4,0-0.9-0.3-1-0.9c-3.4-14.8-10.6-18.6-20.5-18.6
				c-11.2,0-24.4,7.3-24.4,29.6c0,21.7,12.3,29.7,24.4,29.7c10.6,0,19-4.4,19-12.7v-3c0-4.2-0.3-4.8-2.9-5.7c-1.2-0.3-1.4-0.4-1.4-1
				c0-0.3,0.2-0.5,0.6-0.5c0.6,0,3.5,0.5,5.2,0.5c2.5,0,5.2-0.3,6-0.3c0.4,0,0.6,0.2,0.6,0.4c0,1-3.1,1-3.9,1.7c-0.6,0.8-1,2-1,11.6
				v8.7c0,1-0.2,1.3-0.8,1.3C555.4,381.1,555.2,380.9,555.1,379.9"/>
		</defs>
		<use xlink:href="#SVGID_15_"  overflow="visible"/>
		<clipPath id="SVGID_16_">
			<use xlink:href="#SVGID_15_"  overflow="visible"/>
		</clipPath>
		<rect x="500" y="313.3" clip-path="url(#SVGID_16_)" width="66.7" height="73.1"/>
	</g>
</g>
<g>
	<g>
		<defs>
			<path id="SVGID_17_" d="M620,380.4c0-0.5,0.4-0.6,1.6-1c2.9-1.1,3.3-2.6,3.3-4.2c0-1.2-1.4-5.7-4.1-13.1
				c-0.2-0.5-0.4-0.8-1.2-0.9c-1.6-0.2-5.2-0.2-14.3-0.2c-7.2,0-10.4,0.1-11.3,0.2c-0.6,0.1-0.9,0.4-1,1c-1.2,3.3-2.2,6.1-2.9,8.3
				c-0.5,1.7-0.8,3-0.8,3.9c0,2.7,1.7,4.3,4.4,5.2c1,0.2,1.4,0.4,1.4,0.9c0,0.4-0.3,0.6-0.9,0.6c-0.9,0-4.9-0.5-8-0.5
				c-2.5,0-5.2,0.5-5.9,0.5c-0.5,0-1-0.2-1-0.6c0-0.5,0.4-0.6,1.4-1c4.1-1.4,4.5-2.5,7.7-10.4c5.8-14.8,11-29.7,14.9-41.2
				c0.5-1.5,1.1-2.8,1.1-3.5s-0.4-1.4-2.5-2.2c-0.6-0.1-1-0.3-1-0.8c0-0.4,0.3-0.8,1-0.8c5.3,0,6.7-1.8,7.3-1.8
				c0.4,0,0.6,0.2,0.6,0.8c0,0.4-0.6,0.8-0.6,1.5c0,0.5,0,0.9,0.6,2.7c5.5,14.9,12.9,35.4,17.5,48.1c1.9,5.5,2.9,6.7,5.4,7.4
				c1.6,0.5,2.4,0.8,2.4,1.3c0,0.4-0.3,0.6-0.9,0.6c-1.1,0-4.3-0.4-6.7-0.4c-2.3,0-6.2,0.4-7,0.4C620.4,381,620,381,620,380.4
				 M618.8,359c0.4,0,0.6-0.2,0.6-0.4s-0.1-0.4-0.2-0.8c-4.4-12.3-10.3-28.2-12.6-34.2c0-0.1-0.1-0.1-0.1-0.1s-0.1,0-0.1,0.1
				c-3.8,10.9-8.6,24.5-12.2,34.4c-0.1,0.2-0.1,0.4-0.1,0.6c0,0.1,0.1,0.2,0.4,0.3c0.9,0.2,3.4,0.3,11.1,0.3
				C612,359.6,616.9,359.4,618.8,359"/>
		</defs>
		<use xlink:href="#SVGID_17_"  overflow="visible"/>
		<clipPath id="SVGID_18_">
			<use xlink:href="#SVGID_17_"  overflow="visible"/>
		</clipPath>
		<rect x="574.2" y="313.3" clip-path="url(#SVGID_18_)" width="66.7" height="73.1"/>
	</g>
</g>
<g>
	<g>
		<defs>
			<path id="SVGID_19_" d="M675.3,318.7c0.4,0,0.6,0.2,0.6,0.5c0,0.5-0.5,0.6-2.2,1.5c-2.4,1.3-2.3,3.5-2.3,30.4
				c0,22.5,0,24.3,1.1,25.8c1.1,1.6,4.4,2.3,11.6,2.3c11.9,0,14.8-3,16.8-14.4c0.1-0.6,0.3-0.9,0.8-0.9s0.5,0.2,0.5,0.8
				c0,1.6-1.4,8.3-1.4,11.6c0,2.7,1,3,1,4.1c0,0.4-0.2,0.5-0.6,0.5c-1.3,0-8.2-0.6-17.4-0.6c-14.2,0-17.3,0.5-18.4,0.5
				c-0.4,0-0.6-0.2-0.6-0.5s0.4-0.5,1.6-1.4c2-1.5,2-2.8,2-27.7c0-26.8,0.2-29.1-1.9-30.4c-1.4-0.6-1.9-0.9-1.9-1.4
				c0-0.4,0.2-0.5,0.6-0.5c0.6,0,2.4,0.6,4.6,0.6C672.3,319.5,674.3,318.7,675.3,318.7"/>
		</defs>
		<use xlink:href="#SVGID_19_"  overflow="visible"/>
		<clipPath id="SVGID_20_">
			<use xlink:href="#SVGID_19_"  overflow="visible"/>
		</clipPath>
		<rect x="659.1" y="313.3" clip-path="url(#SVGID_20_)" width="48.4" height="73.1"/>
	</g>
</g>
</svg>
