<?xml version="1.0" encoding="UTF-8"?>
<svg width="42px" height="30px" viewBox="0 0 42 30" version="1.1" xmlns="http://www.w3.org/2000/svg" xmlns:xlink="http://www.w3.org/1999/xlink">
    <!-- Generator: Sketch 50.2 (55047) - http://www.bohemiancoding.com/sketch -->
    <title>Group 3</title>
    <desc>Created with Sketch.</desc>
    <defs></defs>
    <g id="Page-1" stroke="none" stroke-width="1" fill="none" fill-rule="evenodd">
        <g id="Contact" transform="translate(-309.000000, -1039.000000)" stroke="#FFFFFF" stroke-width="1.5">
            <g id="Group-3" transform="translate(310.000000, 1040.000000)">
                <path d="M38.2608696,28 L1.73913043,28 C0.778635304,28 0,27.1045685 0,26 L0,2 C0,0.8954306 0.778635304,0 1.73913043,0 L38.2608696,0 C39.2213639,0 40,0.8954306 40,2 L40,26 C40,27.1045685 39.2213639,28 38.2608696,28 Z" id="Shape"></path>
                <path d="M40,0 L20.9042557,17.7027601 C20.3488209,18.09908 19.6511791,18.09908 19.0957443,17.7027601 L0,0" id="Shape"></path>
                <path d="M0,28 L14,13" id="Shape"></path>
                <path d="M25,13 L39,28" id="Shape"></path>
            </g>
        </g>
    </g>
</svg>