<?xml version="1.0" encoding="UTF-8"?>
<svg width="42px" height="38px" viewBox="0 0 42 38" version="1.1" xmlns="http://www.w3.org/2000/svg" xmlns:xlink="http://www.w3.org/1999/xlink">
    <!-- Generator: Sketch 50.2 (55047) - http://www.bohemiancoding.com/sketch -->
    <title>Group 15</title>
    <desc>Created with Sketch.</desc>
    <defs></defs>
    <g id="Page-1" stroke="none" stroke-width="1" fill="none" fill-rule="evenodd">
        <g id="Practice-Areas" transform="translate(-310.000000, -1561.000000)" fill="#FFFFFF">
            <g id="areas" transform="translate(80.000000, 164.000000)">
                <g id="Group-6" transform="translate(170.000000, 1397.000000)">
                    <g id="Group-15" transform="translate(60.000000, 0.000000)">
                        <path d="M4.34482759,0 C3.10275123,0 1.98544855,0.410678462 1.19511043,1.18662448 C0.467191345,1.90128808 0.0876099,2.92928638 0.0466729345,4.08034779 C0.0462008458,4.08081856 0.0457294074,4.08128997 0.0452586207,4.08176203 C0.014002962,4.16588883 -0.00134387672,4.25509227 1.62077925e-14,4.34482759 C1.62077925e-14,4.34736207 0.00141206897,4.34938966 0.00141206897,4.35192414 C0.00147246207,4.35496552 -6.51724138e-05,4.35735517 1.62077925e-14,4.36041103 L1.62077925e-14,33.3103448 C1.62077925e-14,35.8840295 2.20840475,37.6551724 4.70265354,37.6551724 L37.2888607,37.6551724 C38.5359848,37.6551724 39.5959453,37.2092345 40.2844151,36.4077319 C40.9728857,35.6062292 41.2758621,34.5177558 41.2758621,33.3103448 L41.2758621,11.5862069 C41.2758621,10.3390806 40.8479407,9.22913938 40.0680224,8.44921893 C39.2881049,7.66929776 38.1781622,7.24137931 36.9310345,7.24137931 L34.0344828,7.24137931 L34.0344828,3.62068966 C34.0344828,1.68964892 32.1839041,0 29.6896552,0 L4.34482759,0 Z M4.34482759,1.44827586 L29.6896552,1.44827586 C31.5402338,1.44827586 32.5862069,2.65515984 32.5862069,3.62068966 L32.5862069,7.24137931 L4.34482759,7.24137931 C3.4195413,7.24137931 2.71913902,6.9451649 2.2318157,6.45783962 C1.74449245,5.97051434 1.44827586,5.2701151 1.44827586,4.34482759 C1.44833154,4.33964291 1.44833154,4.33445778 1.44827586,4.3292731 C1.42799312,3.3863311 1.72035657,2.69901501 2.20918639,2.21908673 C2.69801628,1.73915852 3.41449015,1.44827586 4.34482759,1.44827586 Z M1.44827586,7.635978 C2.2116562,8.29269724 3.20519886,8.68965517 4.34482759,8.68965517 L33.1887121,8.68965517 C33.2669128,8.70258035 33.3467049,8.70258035 33.4249056,8.68965517 L36.9310345,8.68965517 C37.8563206,8.68965517 38.5567227,8.98586959 39.0440465,9.47319486 C39.5313696,9.96052014 39.8275862,10.6609194 39.8275862,11.5862069 L39.8275862,33.3103448 C39.8275862,34.2753477 39.5855293,34.9972285 39.1854793,35.4629578 C38.7854301,35.9286878 38.2141497,36.2068966 37.2888607,36.2068966 L4.70265354,36.2068966 C2.85207481,36.2068966 1.44827586,35.0814877 1.44827586,33.3103448 L1.44827586,7.635978 Z" id="Shape"></path>
                        <path d="M29.6896552,18.1034483 C28.4425267,18.1034483 27.3325848,18.5313667 26.5526672,19.3112879 C25.7727489,20.0912083 25.3448276,21.2011496 25.3448276,22.4482759 C25.3448276,23.6954021 25.7727475,24.8053499 26.5526672,25.5852638 C27.3325862,26.3651785 28.4425296,26.7931034 29.6896552,26.7931034 L40.5517241,26.7931034 C40.8128731,26.7967949 41.0557799,26.659588 41.1874316,26.4340216 C41.3190833,26.2084552 41.3190833,25.9294759 41.1874316,25.7039094 C41.0557799,25.478343 40.8128731,25.3411361 40.5517241,25.3448276 L29.6896552,25.3448276 C28.764364,25.3448276 28.0639648,25.0486059 27.5766431,24.5612879 C27.0893222,24.0739699 26.7931034,23.3735634 26.7931034,22.4482759 C26.7931034,21.5229883 27.0893208,20.8225891 27.5766431,20.3352638 C28.0639662,19.8479393 28.7643669,19.5517241 29.6896552,19.5517241 L40.5517241,19.5517241 C40.8128731,19.5554156 41.0557799,19.4182087 41.1874316,19.1926423 C41.3190833,18.9670759 41.3190833,18.6880966 41.1874316,18.4625301 C41.0557799,18.2369637 40.8128731,18.0997568 40.5517241,18.1034483 L29.6896552,18.1034483 Z" id="Shape"></path>
                        <path d="M30.0474814,20.2758621 C28.8562673,20.2758621 27.8750676,21.2570617 27.8750676,22.4482759 C27.8750676,23.63949 28.8562673,24.6206897 30.0474814,24.6206897 C31.2386948,24.6206897 32.2198952,23.63949 32.2198952,22.4482759 C32.2198952,21.2570617 31.2386948,20.2758621 30.0474814,20.2758621 Z M30.0474814,21.7241379 C30.4559886,21.7241379 30.7716193,22.0397687 30.7716193,22.4482759 C30.7716193,22.8567831 30.4559886,23.1724138 30.0474814,23.1724138 C29.6389735,23.1724138 29.3233435,22.8567831 29.3233435,22.4482759 C29.3233435,22.0397687 29.6389735,21.7241379 30.0474814,21.7241379 Z" id="Shape"></path>
                        <path d="M6.50592672,13.0245823 C6.10655291,13.0308252 5.7876342,13.3592355 5.79310345,13.7586207 L5.79310345,31.137931 C5.789412,31.39908 5.92661887,31.6419868 6.1521853,31.7736385 C6.37775173,31.9052902 6.65673103,31.9052902 6.88229746,31.7736385 C7.10786389,31.6419868 7.24507076,31.39908 7.24137931,31.137931 L7.24137931,13.7586207 C7.2440597,13.562886 7.16738933,13.3744027 7.02883785,13.2361177 C6.89028637,13.0978326 6.70165593,13.0215252 6.50592672,13.0245823 Z" id="Shape"></path>
                    </g>
                </g>
            </g>
        </g>
    </g>
</svg>